<svg xmlns="http://www.w3.org/2000/svg" xmlns:xlink="http://www.w3.org/1999/xlink" width="485" viewBox="0 0 363.75 251.250001" height="335" preserveAspectRatio="xMidYMid meet"><defs><clipPath id="108de5a836"><path d="M 0.417969 0 L 363.085938 0 L 363.085938 250.503906 L 0.417969 250.503906 Z M 0.417969 0 " clip-rule="nonzero"></path></clipPath><clipPath id="6084f84307"><path d="M 232 62 L 255 62 L 255 95 L 232 95 Z M 232 62 " clip-rule="nonzero"></path></clipPath><clipPath id="6c3e091d8c"><path d="M 226.660156 77.207031 C 226.660156 76.078125 226.769531 74.957031 226.992188 73.847656 C 227.210938 72.742188 227.539062 71.664062 227.96875 70.621094 C 228.402344 69.574219 228.929688 68.582031 229.558594 67.644531 C 230.183594 66.703125 230.898438 65.832031 231.695312 65.035156 C 232.496094 64.234375 233.363281 63.519531 234.300781 62.890625 C 235.242188 62.265625 236.230469 61.734375 237.277344 61.300781 C 238.320312 60.867188 239.394531 60.542969 240.5 60.320312 C 241.609375 60.101562 242.726562 59.992188 243.855469 59.992188 C 244.984375 59.992188 246.101562 60.101562 247.210938 60.320312 C 248.316406 60.542969 249.394531 60.867188 250.4375 61.300781 C 251.480469 61.734375 252.46875 62.265625 253.410156 62.890625 C 254.347656 63.519531 255.214844 64.234375 256.015625 65.035156 C 256.8125 65.832031 257.527344 66.703125 258.152344 67.644531 C 258.78125 68.582031 259.308594 69.574219 259.742188 70.621094 C 260.175781 71.664062 260.5 72.742188 260.722656 73.847656 C 260.941406 74.957031 261.050781 76.078125 261.050781 77.207031 C 261.050781 78.339844 260.941406 79.460938 260.722656 80.566406 C 260.5 81.675781 260.175781 82.753906 259.742188 83.796875 C 259.308594 84.84375 258.78125 85.835938 258.152344 86.773438 C 257.527344 87.714844 256.8125 88.585938 256.015625 89.382812 C 255.214844 90.183594 254.347656 90.898438 253.410156 91.523438 C 252.46875 92.152344 251.480469 92.683594 250.4375 93.117188 C 249.394531 93.550781 248.316406 93.875 247.210938 94.097656 C 246.101562 94.316406 244.984375 94.425781 243.855469 94.425781 C 242.726562 94.425781 241.609375 94.316406 240.5 94.097656 C 239.394531 93.875 238.320312 93.550781 237.277344 93.117188 C 236.230469 92.683594 235.242188 92.152344 234.300781 91.523438 C 233.363281 90.898438 232.496094 90.183594 231.695312 89.382812 C 230.898438 88.585938 230.183594 87.714844 229.558594 86.773438 C 228.929688 85.835938 228.402344 84.84375 227.96875 83.796875 C 227.535156 82.753906 227.210938 81.675781 226.992188 80.566406 C 226.769531 79.460938 226.660156 78.339844 226.660156 77.207031 Z M 226.660156 77.207031 " clip-rule="nonzero"></path></clipPath><clipPath id="6a3121d6cc"><path d="M 226 83 L 262 83 L 262 95 L 226 95 Z M 226 83 " clip-rule="nonzero"></path></clipPath><clipPath id="530d6049cf"><path d="M 226.660156 77.207031 C 226.660156 76.078125 226.769531 74.957031 226.992188 73.847656 C 227.210938 72.742188 227.539062 71.664062 227.96875 70.621094 C 228.402344 69.574219 228.929688 68.582031 229.558594 67.644531 C 230.183594 66.703125 230.898438 65.832031 231.695312 65.035156 C 232.496094 64.234375 233.363281 63.519531 234.300781 62.890625 C 235.242188 62.265625 236.230469 61.734375 237.277344 61.300781 C 238.320312 60.867188 239.394531 60.542969 240.5 60.320312 C 241.609375 60.101562 242.726562 59.992188 243.855469 59.992188 C 244.984375 59.992188 246.101562 60.101562 247.210938 60.320312 C 248.316406 60.542969 249.394531 60.867188 250.4375 61.300781 C 251.480469 61.734375 252.46875 62.265625 253.410156 62.890625 C 254.347656 63.519531 255.214844 64.234375 256.015625 65.035156 C 256.8125 65.832031 257.527344 66.703125 258.152344 67.644531 C 258.78125 68.582031 259.308594 69.574219 259.742188 70.621094 C 260.175781 71.664062 260.5 72.742188 260.722656 73.847656 C 260.941406 74.957031 261.050781 76.078125 261.050781 77.207031 C 261.050781 78.339844 260.941406 79.460938 260.722656 80.566406 C 260.5 81.675781 260.175781 82.753906 259.742188 83.796875 C 259.308594 84.84375 258.78125 85.835938 258.152344 86.773438 C 257.527344 87.714844 256.8125 88.585938 256.015625 89.382812 C 255.214844 90.183594 254.347656 90.898438 253.410156 91.523438 C 252.46875 92.152344 251.480469 92.683594 250.4375 93.117188 C 249.394531 93.550781 248.316406 93.875 247.210938 94.097656 C 246.101562 94.316406 244.984375 94.425781 243.855469 94.425781 C 242.726562 94.425781 241.609375 94.316406 240.5 94.097656 C 239.394531 93.875 238.320312 93.550781 237.277344 93.117188 C 236.230469 92.683594 235.242188 92.152344 234.300781 91.523438 C 233.363281 90.898438 232.496094 90.183594 231.695312 89.382812 C 230.898438 88.585938 230.183594 87.714844 229.558594 86.773438 C 228.929688 85.835938 228.402344 84.84375 227.96875 83.796875 C 227.535156 82.753906 227.210938 81.675781 226.992188 80.566406 C 226.769531 79.460938 226.660156 78.339844 226.660156 77.207031 Z M 226.660156 77.207031 " clip-rule="nonzero"></path></clipPath><clipPath id="ccae385135"><path d="M 239 77 L 249 77 L 249 90 L 239 90 Z M 239 77 " clip-rule="nonzero"></path></clipPath><clipPath id="16ff7e4729"><path d="M 226.660156 77.207031 C 226.660156 76.078125 226.769531 74.957031 226.992188 73.847656 C 227.210938 72.742188 227.539062 71.664062 227.96875 70.621094 C 228.402344 69.574219 228.929688 68.582031 229.558594 67.644531 C 230.183594 66.703125 230.898438 65.832031 231.695312 65.035156 C 232.496094 64.234375 233.363281 63.519531 234.300781 62.890625 C 235.242188 62.265625 236.230469 61.734375 237.277344 61.300781 C 238.320312 60.867188 239.394531 60.542969 240.5 60.320312 C 241.609375 60.101562 242.726562 59.992188 243.855469 59.992188 C 244.984375 59.992188 246.101562 60.101562 247.210938 60.320312 C 248.316406 60.542969 249.394531 60.867188 250.4375 61.300781 C 251.480469 61.734375 252.46875 62.265625 253.410156 62.890625 C 254.347656 63.519531 255.214844 64.234375 256.015625 65.035156 C 256.8125 65.832031 257.527344 66.703125 258.152344 67.644531 C 258.78125 68.582031 259.308594 69.574219 259.742188 70.621094 C 260.175781 71.664062 260.5 72.742188 260.722656 73.847656 C 260.941406 74.957031 261.050781 76.078125 261.050781 77.207031 C 261.050781 78.339844 260.941406 79.460938 260.722656 80.566406 C 260.5 81.675781 260.175781 82.753906 259.742188 83.796875 C 259.308594 84.84375 258.78125 85.835938 258.152344 86.773438 C 257.527344 87.714844 256.8125 88.585938 256.015625 89.382812 C 255.214844 90.183594 254.347656 90.898438 253.410156 91.523438 C 252.46875 92.152344 251.480469 92.683594 250.4375 93.117188 C 249.394531 93.550781 248.316406 93.875 247.210938 94.097656 C 246.101562 94.316406 244.984375 94.425781 243.855469 94.425781 C 242.726562 94.425781 241.609375 94.316406 240.5 94.097656 C 239.394531 93.875 238.320312 93.550781 237.277344 93.117188 C 236.230469 92.683594 235.242188 92.152344 234.300781 91.523438 C 233.363281 90.898438 232.496094 90.183594 231.695312 89.382812 C 230.898438 88.585938 230.183594 87.714844 229.558594 86.773438 C 228.929688 85.835938 228.402344 84.84375 227.96875 83.796875 C 227.535156 82.753906 227.210938 81.675781 226.992188 80.566406 C 226.769531 79.460938 226.660156 78.339844 226.660156 77.207031 Z M 226.660156 77.207031 " clip-rule="nonzero"></path></clipPath><clipPath id="e276872512"><path d="M 235 65 L 253 65 L 253 81 L 235 81 Z M 235 65 " clip-rule="nonzero"></path></clipPath><clipPath id="b36748a0a4"><path d="M 226.660156 77.207031 C 226.660156 76.078125 226.769531 74.957031 226.992188 73.847656 C 227.210938 72.742188 227.539062 71.664062 227.96875 70.621094 C 228.402344 69.574219 228.929688 68.582031 229.558594 67.644531 C 230.183594 66.703125 230.898438 65.832031 231.695312 65.035156 C 232.496094 64.234375 233.363281 63.519531 234.300781 62.890625 C 235.242188 62.265625 236.230469 61.734375 237.277344 61.300781 C 238.320312 60.867188 239.394531 60.542969 240.5 60.320312 C 241.609375 60.101562 242.726562 59.992188 243.855469 59.992188 C 244.984375 59.992188 246.101562 60.101562 247.210938 60.320312 C 248.316406 60.542969 249.394531 60.867188 250.4375 61.300781 C 251.480469 61.734375 252.46875 62.265625 253.410156 62.890625 C 254.347656 63.519531 255.214844 64.234375 256.015625 65.035156 C 256.8125 65.832031 257.527344 66.703125 258.152344 67.644531 C 258.78125 68.582031 259.308594 69.574219 259.742188 70.621094 C 260.175781 71.664062 260.5 72.742188 260.722656 73.847656 C 260.941406 74.957031 261.050781 76.078125 261.050781 77.207031 C 261.050781 78.339844 260.941406 79.460938 260.722656 80.566406 C 260.5 81.675781 260.175781 82.753906 259.742188 83.796875 C 259.308594 84.84375 258.78125 85.835938 258.152344 86.773438 C 257.527344 87.714844 256.8125 88.585938 256.015625 89.382812 C 255.214844 90.183594 254.347656 90.898438 253.410156 91.523438 C 252.46875 92.152344 251.480469 92.683594 250.4375 93.117188 C 249.394531 93.550781 248.316406 93.875 247.210938 94.097656 C 246.101562 94.316406 244.984375 94.425781 243.855469 94.425781 C 242.726562 94.425781 241.609375 94.316406 240.5 94.097656 C 239.394531 93.875 238.320312 93.550781 237.277344 93.117188 C 236.230469 92.683594 235.242188 92.152344 234.300781 91.523438 C 233.363281 90.898438 232.496094 90.183594 231.695312 89.382812 C 230.898438 88.585938 230.183594 87.714844 229.558594 86.773438 C 228.929688 85.835938 228.402344 84.84375 227.96875 83.796875 C 227.535156 82.753906 227.210938 81.675781 226.992188 80.566406 C 226.769531 79.460938 226.660156 78.339844 226.660156 77.207031 Z M 226.660156 77.207031 " clip-rule="nonzero"></path></clipPath><clipPath id="5219b4dde8"><path d="M 237 64 L 251 64 L 251 73 L 237 73 Z M 237 64 " clip-rule="nonzero"></path></clipPath><clipPath id="8e11f3dafd"><path d="M 226.660156 77.207031 C 226.660156 76.078125 226.769531 74.957031 226.992188 73.847656 C 227.210938 72.742188 227.539062 71.664062 227.96875 70.621094 C 228.402344 69.574219 228.929688 68.582031 229.558594 67.644531 C 230.183594 66.703125 230.898438 65.832031 231.695312 65.035156 C 232.496094 64.234375 233.363281 63.519531 234.300781 62.890625 C 235.242188 62.265625 236.230469 61.734375 237.277344 61.300781 C 238.320312 60.867188 239.394531 60.542969 240.5 60.320312 C 241.609375 60.101562 242.726562 59.992188 243.855469 59.992188 C 244.984375 59.992188 246.101562 60.101562 247.210938 60.320312 C 248.316406 60.542969 249.394531 60.867188 250.4375 61.300781 C 251.480469 61.734375 252.46875 62.265625 253.410156 62.890625 C 254.347656 63.519531 255.214844 64.234375 256.015625 65.035156 C 256.8125 65.832031 257.527344 66.703125 258.152344 67.644531 C 258.78125 68.582031 259.308594 69.574219 259.742188 70.621094 C 260.175781 71.664062 260.5 72.742188 260.722656 73.847656 C 260.941406 74.957031 261.050781 76.078125 261.050781 77.207031 C 261.050781 78.339844 260.941406 79.460938 260.722656 80.566406 C 260.5 81.675781 260.175781 82.753906 259.742188 83.796875 C 259.308594 84.84375 258.78125 85.835938 258.152344 86.773438 C 257.527344 87.714844 256.8125 88.585938 256.015625 89.382812 C 255.214844 90.183594 254.347656 90.898438 253.410156 91.523438 C 252.46875 92.152344 251.480469 92.683594 250.4375 93.117188 C 249.394531 93.550781 248.316406 93.875 247.210938 94.097656 C 246.101562 94.316406 244.984375 94.425781 243.855469 94.425781 C 242.726562 94.425781 241.609375 94.316406 240.5 94.097656 C 239.394531 93.875 238.320312 93.550781 237.277344 93.117188 C 236.230469 92.683594 235.242188 92.152344 234.300781 91.523438 C 233.363281 90.898438 232.496094 90.183594 231.695312 89.382812 C 230.898438 88.585938 230.183594 87.714844 229.558594 86.773438 C 228.929688 85.835938 228.402344 84.84375 227.96875 83.796875 C 227.535156 82.753906 227.210938 81.675781 226.992188 80.566406 C 226.769531 79.460938 226.660156 78.339844 226.660156 77.207031 Z M 226.660156 77.207031 " clip-rule="nonzero"></path></clipPath><clipPath id="c00b61b2d8"><path d="M 79 181 L 235 181 L 235 229.136719 L 79 229.136719 Z M 79 181 " clip-rule="nonzero"></path></clipPath><clipPath id="1077a797ee"><path d="M 45 181 L 201 181 L 201 229.136719 L 45 229.136719 Z M 45 181 " clip-rule="nonzero"></path></clipPath><clipPath id="6566c65816"><path d="M 145 21.257812 L 210 21.257812 L 210 85 L 145 85 Z M 145 21.257812 " clip-rule="nonzero"></path></clipPath><clipPath id="0fa2eccd27"><path d="M 145 21.257812 L 210 21.257812 L 210 86 L 145 86 Z M 145 21.257812 " clip-rule="nonzero"></path></clipPath><clipPath id="1c50bacb3b"><path d="M 219 147 L 338.035156 147 L 338.035156 221 L 219 221 Z M 219 147 " clip-rule="nonzero"></path></clipPath><clipPath id="f350d9d6d6"><path d="M 284 21.257812 L 338 21.257812 L 338 75 L 284 75 Z M 284 21.257812 " clip-rule="nonzero"></path></clipPath><clipPath id="8aa12354c6"><path d="M 284 21.257812 L 338.035156 21.257812 L 338.035156 75 L 284 75 Z M 284 21.257812 " clip-rule="nonzero"></path></clipPath></defs><g clip-path="url(#108de5a836)"><path fill="#ffffff" d="M 0.417969 0 L 363.085938 0 L 363.085938 250.503906 L 0.417969 250.503906 Z M 0.417969 0 " fill-opacity="1" fill-rule="nonzero"></path><path fill="#f4f7f2" d="M 0.417969 0 L 363.085938 0 L 363.085938 250.503906 L 0.417969 250.503906 Z M 0.417969 0 " fill-opacity="1" fill-rule="nonzero"></path></g><path fill="#ffffff" d="M 190.9375 44.929688 L 297.113281 44.929688 L 297.113281 178.5625 L 190.9375 178.5625 Z M 190.9375 44.929688 " fill-opacity="1" fill-rule="nonzero"></path><path fill="#000000" d="M 297.113281 178.804688 L 190.9375 178.804688 C 190.804688 178.804688 190.6875 178.6875 190.6875 178.554688 L 190.6875 44.929688 C 190.6875 44.796875 190.804688 44.679688 190.9375 44.679688 L 297.113281 44.679688 C 297.25 44.679688 297.363281 44.796875 297.363281 44.929688 L 297.363281 178.554688 C 297.363281 178.6875 297.25 178.804688 297.113281 178.804688 Z M 191.1875 178.304688 L 296.863281 178.304688 L 296.863281 45.179688 L 191.1875 45.179688 Z M 191.1875 178.304688 " fill-opacity="1" fill-rule="nonzero"></path><path fill="#88e64a" d="M 204.03125 109.007812 L 284.007812 109.007812 L 284.007812 117.726562 L 204.03125 117.726562 Z M 204.03125 109.007812 " fill-opacity="1" fill-rule="nonzero"></path><path fill="#88e64a" d="M 204.03125 127.660156 L 284.007812 127.660156 L 284.007812 136.375 L 204.03125 136.375 Z M 204.03125 127.660156 " fill-opacity="1" fill-rule="nonzero"></path><path fill="#1b4200" d="M 263.484375 77.207031 C 263.484375 77.851562 263.453125 78.496094 263.390625 79.136719 C 263.328125 79.777344 263.230469 80.414062 263.105469 81.042969 C 262.980469 81.675781 262.824219 82.300781 262.636719 82.917969 C 262.453125 83.53125 262.234375 84.136719 261.988281 84.734375 C 261.742188 85.328125 261.46875 85.910156 261.167969 86.476562 C 260.863281 87.046875 260.53125 87.597656 260.175781 88.132812 C 259.820312 88.667969 259.4375 89.183594 259.027344 89.683594 C 258.621094 90.179688 258.191406 90.65625 257.734375 91.113281 C 257.28125 91.566406 256.804688 92 256.308594 92.40625 C 255.8125 92.816406 255.296875 93.199219 254.761719 93.558594 C 254.226562 93.914062 253.675781 94.246094 253.109375 94.550781 C 252.542969 94.851562 251.960938 95.128906 251.367188 95.375 C 250.773438 95.621094 250.167969 95.835938 249.554688 96.023438 C 248.9375 96.210938 248.316406 96.367188 247.683594 96.492188 C 247.054688 96.617188 246.417969 96.714844 245.78125 96.777344 C 245.140625 96.839844 244.5 96.871094 243.855469 96.871094 C 243.214844 96.871094 242.570312 96.839844 241.933594 96.777344 C 241.292969 96.714844 240.65625 96.617188 240.027344 96.492188 C 239.394531 96.367188 238.773438 96.210938 238.160156 96.023438 C 237.542969 95.835938 236.9375 95.621094 236.34375 95.375 C 235.75 95.128906 235.171875 94.851562 234.601562 94.550781 C 234.035156 94.246094 233.484375 93.914062 232.953125 93.558594 C 232.417969 93.199219 231.902344 92.816406 231.402344 92.40625 C 230.90625 92 230.429688 91.566406 229.976562 91.113281 C 229.523438 90.65625 229.089844 90.179688 228.683594 89.683594 C 228.277344 89.183594 227.894531 88.667969 227.535156 88.132812 C 227.179688 87.597656 226.847656 87.046875 226.546875 86.476562 C 226.242188 85.910156 225.96875 85.328125 225.722656 84.734375 C 225.476562 84.136719 225.261719 83.53125 225.074219 82.917969 C 224.886719 82.300781 224.730469 81.675781 224.605469 81.042969 C 224.480469 80.414062 224.386719 79.777344 224.324219 79.136719 C 224.257812 78.496094 224.226562 77.851562 224.226562 77.207031 C 224.226562 76.566406 224.257812 75.921875 224.324219 75.28125 C 224.386719 74.640625 224.480469 74.003906 224.605469 73.371094 C 224.730469 72.742188 224.886719 72.117188 225.074219 71.5 C 225.261719 70.886719 225.476562 70.28125 225.722656 69.683594 C 225.96875 69.089844 226.242188 68.507812 226.546875 67.941406 C 226.847656 67.371094 227.179688 66.820312 227.535156 66.285156 C 227.894531 65.75 228.277344 65.234375 228.683594 64.734375 C 229.089844 64.238281 229.523438 63.761719 229.976562 63.304688 C 230.429688 62.851562 230.90625 62.417969 231.402344 62.011719 C 231.902344 61.601562 232.417969 61.21875 232.953125 60.859375 C 233.484375 60.503906 234.035156 60.171875 234.601562 59.867188 C 235.171875 59.566406 235.75 59.289062 236.34375 59.042969 C 236.9375 58.796875 237.542969 58.582031 238.160156 58.394531 C 238.773438 58.207031 239.394531 58.050781 240.027344 57.925781 C 240.65625 57.800781 241.292969 57.703125 241.933594 57.640625 C 242.570312 57.578125 243.214844 57.546875 243.855469 57.546875 C 244.5 57.546875 245.140625 57.578125 245.78125 57.640625 C 246.417969 57.703125 247.054688 57.800781 247.683594 57.925781 C 248.316406 58.050781 248.9375 58.207031 249.554688 58.394531 C 250.167969 58.582031 250.773438 58.796875 251.367188 59.042969 C 251.960938 59.289062 252.542969 59.566406 253.109375 59.867188 C 253.675781 60.171875 254.226562 60.503906 254.761719 60.859375 C 255.296875 61.21875 255.8125 61.601562 256.308594 62.011719 C 256.804688 62.417969 257.28125 62.851562 257.734375 63.304688 C 258.191406 63.761719 258.621094 64.238281 259.027344 64.734375 C 259.4375 65.234375 259.820312 65.75 260.175781 66.285156 C 260.53125 66.820312 260.863281 67.371094 261.167969 67.941406 C 261.46875 68.507812 261.742188 69.089844 261.988281 69.683594 C 262.234375 70.28125 262.453125 70.886719 262.636719 71.5 C 262.824219 72.117188 262.980469 72.742188 263.105469 73.371094 C 263.230469 74.003906 263.328125 74.640625 263.390625 75.28125 C 263.453125 75.921875 263.484375 76.566406 263.484375 77.207031 Z M 263.484375 77.207031 " fill-opacity="1" fill-rule="nonzero"></path><g clip-path="url(#6084f84307)"><g clip-path="url(#6c3e091d8c)"><path fill="#ffffff" d="M 254.609375 96.074219 L 233.117188 96.074219 C 233.046875 96.074219 232.980469 96.050781 232.933594 95.996094 C 232.886719 95.949219 232.867188 95.882812 232.867188 95.8125 L 233.933594 74.414062 C 234.273438 67.617188 238.640625 62.285156 243.867188 62.285156 C 249.09375 62.285156 253.460938 67.617188 253.800781 74.414062 L 254.867188 95.8125 C 254.867188 95.882812 254.847656 95.949219 254.800781 95.996094 C 254.734375 96.050781 254.675781 96.074219 254.609375 96.074219 Z M 233.367188 95.574219 L 254.335938 95.574219 L 253.277344 74.4375 C 252.949219 67.902344 248.8125 62.785156 243.84375 62.785156 C 238.890625 62.785156 234.742188 67.902344 234.410156 74.4375 Z M 233.367188 95.574219 " fill-opacity="1" fill-rule="nonzero"></path></g></g><g clip-path="url(#6a3121d6cc)"><g clip-path="url(#530d6049cf)"><path fill="#ffffff" d="M 253.585938 85.515625 L 243.855469 83.277344 L 234.128906 85.515625 C 231.511719 86.117188 229.421875 88.097656 228.683594 90.675781 L 226.570312 101.835938 L 261.132812 101.835938 L 259.015625 90.675781 C 258.277344 88.085938 256.199219 86.117188 253.585938 85.515625 Z M 253.585938 85.515625 " fill-opacity="1" fill-rule="nonzero"></path></g></g><g clip-path="url(#ccae385135)"><g clip-path="url(#16ff7e4729)"><path fill="#ffffff" d="M 243.855469 89.300781 C 241.539062 89.300781 239.664062 87.425781 239.664062 85.109375 L 239.664062 77.242188 L 248.050781 77.242188 L 248.050781 85.109375 C 248.050781 87.414062 246.175781 89.300781 243.855469 89.300781 Z M 243.855469 89.300781 " fill-opacity="1" fill-rule="nonzero"></path></g></g><g clip-path="url(#e276872512)"><g clip-path="url(#b36748a0a4)"><path fill="#ffffff" d="M 250.878906 71.789062 C 250.574219 71.707031 250.265625 71.742188 249.980469 71.855469 C 249.742188 67.96875 247.09375 65.332031 243.855469 65.332031 C 240.628906 65.332031 237.980469 67.96875 237.730469 71.855469 C 237.445312 71.742188 237.140625 71.71875 236.832031 71.789062 C 235.921875 72.015625 235.398438 73.058594 235.671875 74.140625 C 235.933594 75.207031 236.890625 75.902344 237.796875 75.675781 C 237.945312 75.640625 238.082031 75.582031 238.207031 75.503906 C 239.140625 78.378906 241.320312 80.574219 243.867188 80.574219 C 246.414062 80.574219 248.582031 78.378906 249.527344 75.503906 C 249.652344 75.582031 249.789062 75.640625 249.9375 75.675781 C 250.84375 75.902344 251.789062 75.21875 252.0625 74.140625 C 252.300781 73.070312 251.789062 72.015625 250.878906 71.789062 Z M 250.878906 71.789062 " fill-opacity="1" fill-rule="nonzero"></path><path fill="#1b4200" d="M 243.855469 80.8125 C 241.421875 80.8125 239.128906 78.824219 238.058594 75.84375 C 237.992188 75.867188 237.921875 75.890625 237.855469 75.914062 C 237.34375 76.039062 236.808594 75.925781 236.34375 75.59375 C 235.898438 75.277344 235.570312 74.777344 235.421875 74.195312 C 235.128906 72.992188 235.730469 71.800781 236.765625 71.550781 C 237.003906 71.492188 237.253906 71.480469 237.503906 71.527344 C 237.867188 67.777344 240.492188 65.082031 243.84375 65.082031 C 247.199219 65.082031 249.835938 67.777344 250.1875 71.527344 C 250.4375 71.480469 250.6875 71.480469 250.925781 71.550781 C 251.960938 71.808594 252.5625 72.992188 252.265625 74.195312 C 252.117188 74.777344 251.800781 75.265625 251.34375 75.59375 C 250.878906 75.925781 250.34375 76.039062 249.835938 75.914062 C 249.765625 75.890625 249.699219 75.878906 249.628906 75.84375 C 248.582031 78.835938 246.289062 80.8125 243.855469 80.8125 Z M 238.195312 75.242188 C 238.230469 75.242188 238.253906 75.242188 238.285156 75.253906 C 238.355469 75.277344 238.410156 75.332031 238.433594 75.414062 C 239.390625 78.34375 241.558594 80.3125 243.855469 80.3125 C 246.140625 80.3125 248.324219 78.34375 249.277344 75.414062 C 249.300781 75.34375 249.355469 75.289062 249.425781 75.253906 C 249.492188 75.230469 249.574219 75.230469 249.640625 75.277344 C 249.753906 75.34375 249.855469 75.390625 249.980469 75.425781 C 250.34375 75.515625 250.730469 75.4375 251.074219 75.1875 C 251.425781 74.9375 251.6875 74.539062 251.800781 74.070312 C 252.027344 73.140625 251.59375 72.21875 250.824219 72.027344 C 250.585938 71.96875 250.324219 71.980469 250.074219 72.082031 C 249.992188 72.117188 249.914062 72.105469 249.84375 72.058594 C 249.777344 72.015625 249.730469 71.945312 249.730469 71.867188 C 249.503906 68.21875 247.039062 65.582031 243.855469 65.582031 C 240.683594 65.582031 238.207031 68.230469 237.980469 71.867188 C 237.980469 71.945312 237.933594 72.015625 237.867188 72.058594 C 237.796875 72.105469 237.71875 72.117188 237.640625 72.082031 C 237.390625 71.992188 237.128906 71.96875 236.890625 72.027344 C 236.117188 72.21875 235.671875 73.140625 235.910156 74.070312 C 236.023438 74.539062 236.285156 74.925781 236.640625 75.1875 C 236.980469 75.4375 237.367188 75.515625 237.730469 75.425781 C 237.84375 75.402344 237.957031 75.34375 238.070312 75.277344 C 238.105469 75.265625 238.152344 75.242188 238.195312 75.242188 Z M 238.195312 75.242188 " fill-opacity="1" fill-rule="nonzero"></path></g></g><g clip-path="url(#5219b4dde8)"><g clip-path="url(#8e11f3dafd)"><path fill="#1b4200" d="M 237.628906 72.832031 C 240.683594 72.253906 243.878906 69.527344 245.800781 67.058594 C 246.175781 69.242188 248.105469 71.800781 250.128906 72.695312 C 250.128906 72.695312 251.09375 64.003906 243.855469 64.273438 C 236.617188 64.558594 237.628906 72.832031 237.628906 72.832031 Z M 237.628906 72.832031 " fill-opacity="1" fill-rule="nonzero"></path></g></g><path fill="#ffffff" d="M 227.820312 205.941406 C 223.601562 191.667969 210.453125 181.90625 195.566406 182.007812 L 81.242188 182.722656 L 80.753906 184.644531 C 74.992188 207.113281 91.957031 228.992188 115.167969 228.992188 L 234.640625 228.992188 Z M 227.820312 205.941406 " fill-opacity="1" fill-rule="nonzero"></path><g clip-path="url(#c00b61b2d8)"><path fill="#000000" d="M 234.628906 229.242188 L 115.15625 229.242188 C 104.015625 229.242188 93.71875 224.195312 86.890625 215.398438 C 80.058594 206.601562 77.742188 195.363281 80.503906 184.578125 L 80.992188 182.65625 C 81.015625 182.542969 81.117188 182.472656 81.230469 182.460938 L 195.554688 181.746094 C 195.621094 181.746094 195.703125 181.746094 195.769531 181.746094 C 203.042969 181.746094 209.976562 184.042969 215.828125 188.382812 C 221.738281 192.769531 225.957031 198.816406 228.046875 205.875 L 234.855469 228.925781 C 234.878906 229.003906 234.867188 229.082031 234.820312 229.140625 C 234.785156 229.207031 234.707031 229.242188 234.628906 229.242188 Z M 81.433594 182.972656 L 80.992188 184.703125 C 78.265625 195.339844 80.558594 206.410156 87.289062 215.09375 C 94.015625 223.765625 104.175781 228.742188 115.15625 228.742188 L 234.296875 228.742188 L 227.582031 206.011719 C 223.445312 192 210.375 182.246094 195.78125 182.246094 C 195.710938 182.246094 195.644531 182.246094 195.578125 182.246094 Z M 81.433594 182.972656 " fill-opacity="1" fill-rule="nonzero"></path></g><path fill="#ffffff" d="M 193.882812 205.941406 C 189.667969 191.667969 176.515625 181.90625 161.628906 182.007812 L 47.304688 182.722656 L 46.816406 184.644531 C 41.054688 207.113281 58.023438 228.992188 81.230469 228.992188 L 200.703125 228.992188 Z M 193.882812 205.941406 " fill-opacity="1" fill-rule="nonzero"></path><g clip-path="url(#1077a797ee)"><path fill="#000000" d="M 200.691406 229.242188 L 81.21875 229.242188 C 70.082031 229.242188 59.785156 224.195312 52.953125 215.398438 C 46.121094 206.601562 43.804688 195.363281 46.566406 184.578125 L 47.054688 182.65625 C 47.078125 182.542969 47.179688 182.472656 47.292969 182.460938 L 161.617188 181.746094 C 161.683594 181.746094 161.765625 181.746094 161.832031 181.746094 C 169.105469 181.746094 176.039062 184.042969 181.890625 188.382812 C 187.800781 192.769531 192.019531 198.816406 194.109375 205.875 L 200.917969 228.925781 C 200.941406 229.003906 200.929688 229.082031 200.882812 229.140625 C 200.851562 229.207031 200.769531 229.242188 200.691406 229.242188 Z M 47.496094 182.972656 L 47.054688 184.703125 C 44.328125 195.339844 46.621094 206.410156 53.351562 215.09375 C 60.078125 223.765625 70.238281 228.742188 81.21875 228.742188 L 200.359375 228.742188 L 193.644531 206.011719 C 189.496094 192 176.4375 182.246094 161.84375 182.246094 C 161.777344 182.246094 161.707031 182.246094 161.640625 182.246094 Z M 47.496094 182.972656 " fill-opacity="1" fill-rule="nonzero"></path></g><path fill="#ffffff" d="M 173.605469 97.03125 C 169.84375 100.144531 146.582031 129.101562 146.582031 129.101562 L 140.035156 123.589844 C 140.035156 123.589844 128.804688 127.566406 117.996094 133.773438 C 117.996094 133.773438 118.554688 150.058594 135.203125 159.675781 C 161.558594 174.894531 186.324219 115.953125 186.324219 115.953125 C 186.324219 115.953125 189.1875 117.726562 192.121094 115.203125 C 195.054688 112.691406 196.246094 110.246094 192.917969 108.726562 C 192.917969 108.726562 197.304688 104.644531 193.15625 101.996094 C 193.15625 101.996094 196.417969 95.675781 187.675781 97.03125 C 187.675781 97.03125 201.976562 90.109375 198.089844 86.199219 C 197.019531 85.117188 196.734375 84.128906 193.074219 86.265625 C 189.425781 88.390625 177.367188 93.925781 173.605469 97.03125 Z M 173.605469 97.03125 " fill-opacity="1" fill-rule="nonzero"></path><path fill="#000000" d="M 144.171875 162.425781 C 141.058594 162.425781 138.023438 161.574219 135.089844 159.890625 C 126.429688 154.890625 122.179688 148.070312 120.144531 143.21875 C 117.929688 137.96875 117.769531 133.832031 117.769531 133.785156 C 117.769531 133.695312 117.816406 133.601562 117.894531 133.558594 C 128.601562 127.410156 139.851562 123.398438 139.964844 123.363281 C 140.046875 123.328125 140.148438 123.351562 140.214844 123.410156 L 146.558594 128.761719 C 148.785156 125.988281 169.832031 99.835938 173.460938 96.847656 C 176.015625 94.734375 182.289062 91.550781 187.324219 89.007812 C 189.722656 87.789062 191.792969 86.746094 192.972656 86.050781 C 196.269531 84.128906 196.996094 84.640625 197.984375 85.710938 C 198.078125 85.8125 198.179688 85.914062 198.28125 86.027344 C 198.882812 86.640625 199.121094 87.347656 198.984375 88.152344 C 198.441406 91.359375 191.847656 95.15625 189.042969 96.632812 C 191.28125 96.472656 192.78125 96.90625 193.519531 97.925781 C 194.507812 99.304688 193.769531 101.28125 193.484375 101.917969 C 194.519531 102.632812 195.097656 103.519531 195.191406 104.53125 C 195.347656 106.339844 193.949219 108.03125 193.359375 108.667969 C 194.441406 109.234375 195.054688 109.941406 195.167969 110.78125 C 195.347656 112.078125 194.40625 113.589844 192.292969 115.394531 C 189.769531 117.566406 187.257812 116.667969 186.460938 116.292969 C 185.78125 117.875 181.871094 126.714844 175.960938 136.148438 C 169.957031 145.730469 160.617188 157.878906 150.160156 161.402344 C 148.136719 162.085938 146.136719 162.425781 144.171875 162.425781 Z M 118.269531 133.910156 C 118.328125 134.683594 118.667969 138.421875 120.609375 143.035156 C 122.621094 147.808594 126.816406 154.527344 135.339844 159.449219 C 140 162.128906 144.933594 162.628906 150 160.925781 C 160.308594 157.449219 169.582031 145.390625 175.539062 135.886719 C 182.007812 125.566406 186.074219 115.953125 186.109375 115.851562 C 186.132812 115.78125 186.1875 115.738281 186.269531 115.714844 C 186.335938 115.691406 186.414062 115.703125 186.472656 115.738281 C 186.585938 115.804688 189.222656 117.375 191.972656 115.007812 C 193.917969 113.339844 194.824219 111.929688 194.679688 110.839844 C 194.574219 110.101562 193.949219 109.464844 192.835938 108.953125 C 192.757812 108.917969 192.710938 108.851562 192.6875 108.769531 C 192.679688 108.691406 192.699219 108.601562 192.769531 108.542969 C 192.792969 108.519531 194.882812 106.554688 194.699219 104.566406 C 194.621094 103.65625 194.066406 102.859375 193.042969 102.199219 C 192.929688 102.132812 192.894531 101.984375 192.949219 101.871094 C 192.960938 101.847656 194.109375 99.585938 193.109375 98.199219 C 192.347656 97.144531 190.542969 96.824219 187.734375 97.257812 C 187.609375 97.28125 187.496094 97.199219 187.460938 97.085938 C 187.425781 96.972656 187.484375 96.835938 187.585938 96.792969 C 187.6875 96.746094 197.859375 91.777344 198.496094 88.039062 C 198.609375 87.402344 198.417969 86.847656 197.929688 86.359375 C 197.816406 86.246094 197.710938 86.140625 197.621094 86.027344 C 196.828125 85.164062 196.335938 84.640625 193.222656 86.460938 C 192.03125 87.152344 189.949219 88.210938 187.550781 89.425781 C 182.539062 91.960938 176.300781 95.132812 173.777344 97.210938 C 170.074219 100.269531 147.023438 128.964844 146.796875 129.25 C 146.75 129.308594 146.695312 129.339844 146.625 129.339844 C 146.558594 129.351562 146.488281 129.328125 146.445312 129.285156 L 140.011719 123.863281 C 138.691406 124.351562 128.257812 128.195312 118.269531 133.910156 Z M 173.605469 97.03125 Z M 173.605469 97.03125 " fill-opacity="1" fill-rule="nonzero"></path><path fill="#000000" d="M 174.265625 109.007812 C 172.960938 109.007812 171.640625 108.578125 170.628906 107.746094 C 170.527344 107.65625 170.503906 107.496094 170.59375 107.394531 C 170.6875 107.292969 170.84375 107.269531 170.949219 107.359375 C 172.527344 108.644531 174.890625 108.882812 176.6875 107.917969 C 177.234375 107.621094 177.742188 107.222656 178.246094 106.839844 C 179.085938 106.191406 179.949219 105.507812 181.015625 105.304688 C 181.640625 105.179688 182.265625 105.222656 182.871094 105.269531 C 183.121094 105.292969 183.371094 105.304688 183.621094 105.316406 C 184.3125 105.335938 185.246094 105.222656 185.78125 104.621094 C 186.324219 104.007812 186.28125 103.066406 185.984375 102.40625 C 185.644531 101.609375 184.972656 101.007812 184.359375 100.519531 C 181.9375 98.574219 178.890625 97.3125 175.800781 96.984375 C 175.664062 96.972656 175.5625 96.847656 175.585938 96.710938 C 175.597656 96.574219 175.722656 96.472656 175.859375 96.484375 C 179.039062 96.824219 182.175781 98.121094 184.664062 100.132812 C 185.324219 100.65625 186.039062 101.316406 186.425781 102.199219 C 186.78125 103.007812 186.824219 104.167969 186.132812 104.941406 C 185.597656 105.542969 184.746094 105.828125 183.585938 105.792969 C 183.324219 105.78125 183.0625 105.769531 182.8125 105.746094 C 182.210938 105.703125 181.652344 105.65625 181.097656 105.769531 C 180.140625 105.964844 179.359375 106.566406 178.527344 107.214844 C 178.015625 107.609375 177.484375 108.019531 176.902344 108.339844 C 176.109375 108.792969 175.1875 109.007812 174.265625 109.007812 Z M 174.265625 109.007812 " fill-opacity="1" fill-rule="nonzero"></path><path fill="#000000" d="M 182.972656 109.476562 C 182.902344 109.476562 182.824219 109.476562 182.757812 109.464844 C 181.777344 109.40625 180.902344 108.917969 180.484375 108.203125 C 179.972656 107.339844 180.199219 106.179688 180.972656 105.679688 C 181.085938 105.597656 181.246094 105.632812 181.3125 105.757812 C 181.390625 105.871094 181.359375 106.03125 181.234375 106.097656 C 180.6875 106.453125 180.527344 107.316406 180.902344 107.953125 C 181.246094 108.53125 181.960938 108.917969 182.765625 108.964844 C 183.597656 109.007812 184.425781 108.734375 185.050781 108.484375 C 188.109375 107.269531 190.710938 105.042969 192.371094 102.210938 C 192.4375 102.097656 192.597656 102.054688 192.710938 102.121094 C 192.824219 102.191406 192.871094 102.347656 192.804688 102.460938 C 191.085938 105.394531 188.394531 107.703125 185.234375 108.953125 C 184.632812 109.191406 183.824219 109.476562 182.972656 109.476562 Z M 182.972656 109.476562 " fill-opacity="1" fill-rule="nonzero"></path><path fill="#000000" d="M 186.03125 113.15625 C 185.585938 113.15625 185.152344 113.101562 184.746094 112.964844 C 183.109375 112.464844 181.996094 110.816406 182.246094 109.292969 C 182.265625 109.15625 182.390625 109.066406 182.527344 109.089844 C 182.664062 109.109375 182.757812 109.234375 182.734375 109.371094 C 182.515625 110.65625 183.484375 112.042969 184.882812 112.476562 C 186.109375 112.851562 187.585938 112.578125 188.949219 111.726562 C 190.1875 110.941406 191.1875 109.804688 192.15625 108.714844 C 192.246094 108.609375 192.40625 108.601562 192.507812 108.691406 C 192.609375 108.78125 192.621094 108.941406 192.53125 109.042969 C 191.542969 110.167969 190.53125 111.328125 189.222656 112.15625 C 188.1875 112.816406 187.074219 113.15625 186.03125 113.15625 Z M 186.03125 113.15625 " fill-opacity="1" fill-rule="nonzero"></path><path fill="#000000" d="M 186.289062 115.738281 C 186.246094 115.738281 186.199219 115.726562 186.15625 115.691406 C 185.3125 115.144531 184.9375 113.976562 185.300781 113.03125 C 185.347656 112.90625 185.496094 112.839844 185.632812 112.894531 C 185.757812 112.941406 185.824219 113.089844 185.769531 113.226562 C 185.484375 113.941406 185.78125 114.863281 186.425781 115.28125 C 186.539062 115.363281 186.574219 115.507812 186.496094 115.625 C 186.449219 115.703125 186.371094 115.738281 186.289062 115.738281 Z M 186.289062 115.738281 " fill-opacity="1" fill-rule="nonzero"></path><path fill="#1b4200" d="M 117.078125 104.234375 C 113.8125 103.371094 107.289062 103.359375 102.585938 103.121094 C 102.324219 103.972656 83.855469 103.566406 77.640625 103.121094 C 73.367188 103.359375 70.105469 102.460938 66.101562 103.097656 C 58.453125 104.304688 46.882812 107.328125 42.222656 116.144531 C 38.859375 122.511719 33.234375 140.605469 33.234375 140.605469 L 72.683594 180.292969 L 121.667969 179.074219 L 141.976562 173.550781 L 131.316406 136.707031 L 143.148438 123.578125 C 143.148438 123.589844 128.042969 107.121094 117.078125 104.234375 Z M 117.078125 104.234375 " fill-opacity="1" fill-rule="nonzero"></path><path fill="#000000" d="M 65.011719 140.832031 C 64.988281 140.832031 64.953125 140.832031 64.933594 140.820312 C 64.796875 140.773438 64.726562 140.636719 64.773438 140.503906 C 65.238281 139.058594 65.488281 138.242188 65.714844 137.445312 C 65.964844 136.605469 66.195312 135.808594 66.671875 134.398438 C 66.976562 133.476562 68.136719 132.660156 69.195312 132.589844 C 69.332031 132.582031 69.457031 132.695312 69.457031 132.832031 C 69.46875 132.964844 69.351562 133.09375 69.21875 133.09375 C 68.363281 133.136719 67.386719 133.832031 67.148438 134.558594 C 66.671875 135.957031 66.445312 136.75 66.207031 137.59375 C 65.964844 138.398438 65.726562 139.21875 65.25 140.671875 C 65.214844 140.773438 65.113281 140.832031 65.011719 140.832031 Z M 65.011719 140.832031 " fill-opacity="1" fill-rule="nonzero"></path><path fill="#000000" d="M 123.179688 155.128906 C 123.054688 155.128906 122.953125 155.039062 122.929688 154.914062 L 120.246094 133.863281 C 120.222656 133.726562 120.328125 133.601562 120.464844 133.582031 C 120.597656 133.570312 120.722656 133.660156 120.746094 133.796875 L 123.429688 154.84375 C 123.453125 154.980469 123.351562 155.105469 123.214844 155.128906 C 123.203125 155.128906 123.191406 155.128906 123.179688 155.128906 Z M 123.179688 155.128906 " fill-opacity="1" fill-rule="nonzero"></path><path fill="#ffffff" d="M 93.617188 158.699219 C 91.527344 158.515625 87.503906 157.34375 87.503906 157.34375 C 80.355469 157.074219 70.488281 157.050781 59.921875 156.765625 C 59.910156 156.765625 64.886719 141.035156 64.886719 141.035156 C 64.886719 141.035156 39.566406 140.59375 33.222656 140.59375 C 33.222656 140.59375 27.652344 159.414062 26.769531 165.449219 C 25.539062 173.847656 29.859375 179.054688 29.859375 179.054688 C 34.769531 187.234375 49.476562 187.167969 57.863281 186.871094 C 67.886719 186.507812 73.375 184.066406 84.980469 182.835938 Z M 93.617188 158.699219 " fill-opacity="1" fill-rule="nonzero"></path><path fill="#000000" d="M 52.269531 187.109375 C 49.394531 187.109375 46.464844 186.976562 43.519531 186.667969 L 43.269531 186.644531 C 37.222656 186.019531 32.484375 183.394531 29.550781 179.074219 C 26.289062 174.28125 25.484375 167.777344 27.324219 161.242188 C 28.007812 158.800781 28.585938 156.765625 29.132812 154.832031 C 30.3125 150.664062 31.335938 147.046875 33.007812 141.003906 C 33.042969 140.867188 33.179688 140.785156 33.3125 140.832031 C 33.449219 140.867188 33.53125 141.003906 33.484375 141.136719 C 31.8125 147.183594 30.792969 150.800781 29.609375 154.96875 C 29.0625 156.902344 28.484375 158.949219 27.800781 161.378906 C 26.027344 167.675781 26.835938 174.199219 29.960938 178.804688 C 32.8125 182.996094 37.429688 185.542969 43.316406 186.15625 L 43.566406 186.179688 C 56.523438 187.554688 69.273438 185.484375 77.707031 183.507812 C 79.605469 183.066406 82.539062 183.644531 85.640625 184.269531 C 88.34375 184.816406 91.152344 185.371094 93.605469 185.339844 C 93.742188 185.339844 93.855469 185.453125 93.855469 185.589844 C 93.855469 185.722656 93.742188 185.839844 93.605469 185.839844 C 91.09375 185.859375 88.277344 185.304688 85.539062 184.757812 C 82.492188 184.144531 79.617188 183.578125 77.820312 183.996094 C 71.285156 185.519531 62.125 187.109375 52.269531 187.109375 Z M 52.269531 187.109375 " fill-opacity="1" fill-rule="nonzero"></path><path fill="#ffffff" d="M 71.398438 179.691406 C 71.046875 182.042969 73.433594 183.859375 75.605469 182.894531 C 80.035156 180.929688 84.84375 179.929688 89.699219 179.984375 L 110.6875 180.199219 C 110.6875 180.199219 111.621094 154.367188 81.945312 157.640625 C 81.933594 157.628906 73.695312 164.175781 71.398438 179.691406 Z M 71.398438 179.691406 " fill-opacity="1" fill-rule="nonzero"></path><path fill="#000000" d="M 95.222656 180.542969 C 95.210938 180.542969 95.199219 180.542969 95.1875 180.542969 C 95.050781 180.519531 94.960938 180.394531 94.972656 180.257812 C 95.1875 178.757812 94.835938 177.074219 93.980469 175.542969 C 93.265625 174.257812 92.199219 173.039062 90.71875 171.835938 C 90.4375 171.609375 90.140625 171.371094 89.800781 171.222656 C 89.675781 171.164062 89.617188 171.019531 89.675781 170.894531 C 89.730469 170.769531 89.878906 170.710938 90.003906 170.769531 C 90.402344 170.9375 90.730469 171.199219 91.039062 171.449219 C 92.5625 172.699219 93.664062 173.960938 94.425781 175.300781 C 95.335938 176.925781 95.710938 178.710938 95.480469 180.324219 C 95.449219 180.460938 95.347656 180.542969 95.222656 180.542969 Z M 95.222656 180.542969 " fill-opacity="1" fill-rule="nonzero"></path><path fill="#000000" d="M 102.007812 180.15625 C 101.882812 180.15625 101.777344 180.066406 101.753906 179.941406 C 101.503906 178.144531 101.128906 176.042969 100.359375 174.074219 C 99.550781 172.039062 98.359375 170.394531 96.925781 169.277344 C 96.8125 169.199219 96.800781 169.039062 96.878906 168.925781 C 96.960938 168.8125 97.117188 168.800781 97.234375 168.882812 C 98.742188 170.039062 99.984375 171.769531 100.824219 173.882812 C 101.628906 175.894531 101.996094 178.03125 102.257812 179.859375 C 102.277344 179.996094 102.175781 180.121094 102.039062 180.144531 C 102.027344 180.15625 102.015625 180.15625 102.007812 180.15625 Z M 102.007812 180.15625 " fill-opacity="1" fill-rule="nonzero"></path><path fill="#000000" d="M 107.4375 180.15625 C 107.425781 180.15625 107.414062 180.15625 107.40625 180.15625 C 107.269531 180.144531 107.164062 180.019531 107.1875 179.882812 C 108.097656 172.210938 103.097656 167.449219 103.039062 167.402344 C 102.9375 167.3125 102.9375 167.152344 103.027344 167.050781 C 103.121094 166.949219 103.277344 166.949219 103.382812 167.039062 C 103.4375 167.085938 108.621094 172.027344 107.675781 179.949219 C 107.675781 180.066406 107.5625 180.15625 107.4375 180.15625 Z M 107.4375 180.15625 " fill-opacity="1" fill-rule="nonzero"></path><path fill="#000000" d="M 46.871094 157.117188 C 46.738281 157.117188 46.621094 157.003906 46.621094 156.867188 C 46.621094 156.730469 46.738281 156.617188 46.871094 156.617188 L 59.910156 156.515625 C 60.046875 156.515625 60.160156 156.628906 60.160156 156.765625 C 60.160156 156.902344 60.046875 157.015625 59.910156 157.015625 L 46.871094 157.117188 C 46.882812 157.117188 46.871094 157.117188 46.871094 157.117188 Z M 46.871094 157.117188 " fill-opacity="1" fill-rule="nonzero"></path><path fill="#ffffff" d="M 179.5625 187.519531 L 75.105469 187.519531 C 74.492188 187.519531 73.867188 187.359375 73.355469 187.007812 C 72.160156 186.191406 71.738281 184.714844 72.21875 183.453125 C 73.445312 180.859375 75.992188 179.949219 79.765625 179.949219 L 186.414062 179.949219 L 185.027344 183.722656 C 184.175781 186.007812 182.007812 187.519531 179.5625 187.519531 Z M 179.5625 187.519531 " fill-opacity="1" fill-rule="nonzero"></path><path fill="#000000" d="M 179.5625 187.769531 L 75.105469 187.769531 C 74.398438 187.769531 73.742188 187.578125 73.21875 187.214844 C 71.96875 186.347656 71.46875 184.769531 71.988281 183.359375 C 73.195312 180.824219 75.59375 179.699219 79.765625 179.699219 L 186.414062 179.699219 C 186.496094 179.699219 186.574219 179.746094 186.621094 179.804688 C 186.664062 179.871094 186.675781 179.949219 186.65625 180.03125 L 185.269531 183.804688 C 184.382812 186.179688 182.097656 187.769531 179.5625 187.769531 Z M 79.765625 180.199219 C 75.808594 180.199219 73.558594 181.234375 72.445312 183.554688 C 72.011719 184.722656 72.433594 186.066406 73.5 186.804688 C 73.945312 187.109375 74.5 187.269531 75.105469 187.269531 L 179.5625 187.269531 C 181.882812 187.269531 183.984375 185.804688 184.800781 183.632812 L 186.0625 180.199219 Z M 79.765625 180.199219 " fill-opacity="1" fill-rule="nonzero"></path><path fill="#ffffff" d="M 180.152344 187.519531 C 182.246094 187.519531 184.121094 186.246094 184.894531 184.304688 L 203.382812 137.808594 C 203.871094 136.570312 203.726562 135.183594 202.976562 134.082031 C 202.234375 132.976562 200.984375 132.320312 199.667969 132.320312 L 135.464844 132.320312 C 131.601562 132.320312 128.144531 134.761719 126.863281 138.410156 L 109.507812 187.519531 Z M 180.152344 187.519531 " fill-opacity="1" fill-rule="nonzero"></path><path fill="#000000" d="M 180.152344 187.769531 L 109.507812 187.769531 C 109.371094 187.769531 109.257812 187.65625 109.257812 187.519531 C 109.257812 187.382812 109.371094 187.269531 109.507812 187.269531 L 180.152344 187.269531 C 182.152344 187.269531 183.925781 186.066406 184.664062 184.210938 L 203.15625 137.71875 C 203.621094 136.558594 203.476562 135.25 202.78125 134.21875 C 202.089844 133.183594 200.929688 132.570312 199.679688 132.570312 L 135.476562 132.570312 C 135.339844 132.570312 135.226562 132.457031 135.226562 132.320312 C 135.226562 132.183594 135.339844 132.070312 135.476562 132.070312 L 199.679688 132.070312 C 201.089844 132.070312 202.40625 132.761719 203.191406 133.933594 C 203.988281 135.101562 204.144531 136.582031 203.621094 137.898438 L 185.132812 184.394531 C 184.3125 186.453125 182.359375 187.769531 180.152344 187.769531 Z M 180.152344 187.769531 " fill-opacity="1" fill-rule="nonzero"></path><path fill="#000000" d="M 181.664062 180.667969 L 118.019531 180.667969 C 117.882812 180.667969 117.769531 180.554688 117.769531 180.417969 C 117.769531 180.28125 117.882812 180.167969 118.019531 180.167969 L 181.664062 180.167969 C 181.800781 180.167969 181.914062 180.28125 181.914062 180.417969 C 181.914062 180.554688 181.800781 180.667969 181.664062 180.667969 Z M 181.664062 180.667969 " fill-opacity="1" fill-rule="nonzero"></path><path fill="#ffffff" d="M 96.847656 112.292969 C 103.722656 111.882812 104.300781 104.667969 104.539062 103.554688 C 102.984375 103.269531 101.960938 101.710938 102.359375 100.132812 L 105.574219 87.652344 C 105.574219 87.652344 92.460938 77.0625 88.480469 80.390625 L 81.546875 100.699219 C 81.105469 101.996094 80.003906 102.960938 78.660156 103.222656 L 78.640625 103.222656 C 79.355469 104.734375 84.492188 113.03125 96.847656 112.292969 Z M 96.847656 112.292969 " fill-opacity="1" fill-rule="nonzero"></path><path fill="#000000" d="M 104.539062 103.804688 C 104.527344 103.804688 104.507812 103.804688 104.496094 103.804688 C 103.675781 103.65625 102.949219 103.167969 102.496094 102.460938 C 102.039062 101.746094 101.902344 100.90625 102.121094 100.074219 L 105.300781 87.746094 C 103.960938 86.6875 92.34375 77.6875 88.695312 80.539062 L 81.785156 100.78125 C 81.320312 102.15625 80.140625 103.191406 78.707031 103.460938 C 78.570312 103.484375 78.445312 103.40625 78.410156 103.269531 C 78.390625 103.132812 78.46875 103.007812 78.605469 102.972656 C 79.855469 102.734375 80.890625 101.824219 81.308594 100.621094 L 88.242188 80.3125 C 88.253906 80.265625 88.289062 80.230469 88.320312 80.199219 C 92.425781 76.777344 105.199219 87.015625 105.734375 87.460938 C 105.8125 87.515625 105.847656 87.621094 105.8125 87.722656 L 102.597656 100.199219 C 102.414062 100.882812 102.527344 101.597656 102.914062 102.191406 C 103.289062 102.78125 103.890625 103.191406 104.574219 103.316406 C 104.710938 103.335938 104.800781 103.472656 104.777344 103.609375 C 104.769531 103.722656 104.652344 103.804688 104.539062 103.804688 Z M 104.539062 103.804688 " fill-opacity="1" fill-rule="nonzero"></path><path fill="#000000" d="M 80.320312 71.914062 C 80.035156 67.105469 81.503906 62.207031 84.402344 58.355469 C 85.640625 56.707031 87.164062 55.21875 89.039062 54.351562 C 90.914062 53.488281 93.175781 53.332031 95.015625 54.25 C 95.039062 54.261719 95.050781 54.273438 95.074219 54.273438 C 97.117188 55.320312 99.597656 55.148438 101.3125 53.613281 C 102.414062 52.625 103.699219 51.851562 105.097656 51.351562 C 108.632812 50.113281 112.757812 50.75 115.757812 52.988281 C 118.757812 55.226562 120.519531 59.011719 120.328125 62.753906 C 120.078125 67.605469 116.78125 71.789062 113.074219 74.925781 C 109.359375 78.0625 105.0625 80.539062 100.402344 81.914062 C 96.617188 83.039062 92.59375 83.425781 88.675781 82.925781 C 86.902344 82.699219 85.570312 82.5625 84.253906 81.300781 C 83.09375 80.1875 82.21875 78.824219 81.582031 77.34375 C 80.84375 75.664062 80.433594 73.789062 80.320312 71.914062 Z M 80.320312 71.914062 " fill-opacity="1" fill-rule="nonzero"></path><path fill="#ffffff" d="M 91.207031 88.140625 C 89.582031 88.871094 87.5625 88.472656 86.230469 87.277344 C 84.914062 86.085938 84.296875 84.199219 84.539062 82.425781 C 84.664062 81.527344 85.003906 80.605469 85.707031 80.027344 C 86.605469 79.277344 87.945312 79.21875 89.039062 79.664062 C 90.117188 80.105469 90.980469 80.992188 91.652344 81.949219 C 91.652344 81.949219 92.664062 80.980469 95.824219 78.0625 C 99.402344 74.753906 94.21875 69.152344 94.21875 69.152344 C 99.484375 71.515625 104.585938 71.617188 109.53125 69.492188 C 112.257812 73.664062 113.324219 78.867188 112.472656 83.777344 C 111.972656 86.628906 110.792969 89.472656 108.609375 91.394531 C 106.121094 93.585938 102.539062 94.335938 99.300781 93.644531 C 96.0625 92.949219 93.1875 90.925781 91.152344 88.3125 Z M 91.207031 88.140625 " fill-opacity="1" fill-rule="nonzero"></path><path fill="#000000" d="M 101.652344 94.144531 C 100.847656 94.144531 100.039062 94.0625 99.242188 93.894531 C 96.105469 93.222656 93.164062 91.3125 90.96875 88.503906 C 89.355469 89.074219 87.390625 88.664062 86.058594 87.460938 C 84.707031 86.246094 84.039062 84.300781 84.289062 82.390625 C 84.390625 81.617188 84.695312 80.550781 85.550781 79.835938 C 86.46875 79.074219 87.867188 78.914062 89.128906 79.4375 C 90.050781 79.8125 90.914062 80.539062 91.6875 81.574219 C 92.117188 81.164062 93.289062 80.0625 95.652344 77.878906 C 99.003906 74.789062 94.085938 69.378906 94.027344 69.320312 C 93.949219 69.230469 93.9375 69.105469 94.003906 69.003906 C 94.074219 68.902344 94.199219 68.878906 94.3125 68.921875 C 99.472656 71.242188 104.5625 71.355469 109.425781 69.265625 C 109.542969 69.21875 109.667969 69.253906 109.734375 69.355469 C 112.496094 73.570312 113.574219 78.84375 112.722656 83.824219 C 112.324219 86.128906 111.3125 89.347656 108.78125 91.574219 C 106.90625 93.246094 104.3125 94.144531 101.652344 94.144531 Z M 91.425781 88.265625 C 93.539062 90.949219 96.347656 92.769531 99.347656 93.402344 C 102.632812 94.097656 106.121094 93.257812 108.4375 91.210938 C 110.871094 89.074219 111.835938 85.972656 112.222656 83.742188 C 113.054688 78.96875 112.03125 73.902344 109.425781 69.808594 C 104.777344 71.753906 99.949219 71.742188 95.050781 69.777344 C 95.503906 70.367188 96.105469 71.242188 96.574219 72.253906 C 97.734375 74.742188 97.527344 76.8125 95.980469 78.242188 C 92.855469 81.128906 91.824219 82.117188 91.8125 82.117188 C 91.753906 82.164062 91.6875 82.199219 91.617188 82.1875 C 91.550781 82.175781 91.480469 82.140625 91.4375 82.085938 C 90.675781 80.992188 89.832031 80.253906 88.9375 79.890625 C 87.84375 79.4375 86.640625 79.574219 85.867188 80.210938 C 85.300781 80.6875 84.914062 81.480469 84.789062 82.449219 C 84.558594 84.199219 85.175781 85.972656 86.402344 87.085938 C 87.6875 88.246094 89.617188 88.574219 91.105469 87.902344 C 91.230469 87.847656 91.378906 87.902344 91.4375 88.027344 C 91.46875 88.121094 91.46875 88.199219 91.425781 88.265625 Z M 91.425781 88.265625 " fill-opacity="1" fill-rule="nonzero"></path><path fill="#000000" d="M 91.34375 85.253906 C 91.289062 85.253906 91.242188 85.242188 91.199219 85.210938 C 90.3125 84.539062 89.21875 84.128906 88.117188 84.050781 C 87.980469 84.039062 87.878906 83.925781 87.890625 83.777344 C 87.902344 83.640625 88.015625 83.539062 88.164062 83.550781 C 89.355469 83.640625 90.550781 84.085938 91.503906 84.8125 C 91.617188 84.890625 91.640625 85.050781 91.550781 85.164062 C 91.492188 85.222656 91.425781 85.253906 91.34375 85.253906 Z M 91.34375 85.253906 " fill-opacity="1" fill-rule="nonzero"></path><path fill="#000000" d="M 110.28125 69.390625 C 110.199219 69.390625 110.121094 69.355469 110.074219 69.277344 C 109.996094 69.164062 110.03125 69.003906 110.144531 68.933594 C 112.019531 67.707031 113.382812 65.742188 113.894531 63.558594 C 113.929688 63.421875 114.0625 63.34375 114.191406 63.378906 C 114.324219 63.410156 114.40625 63.546875 114.371094 63.671875 C 113.835938 65.980469 112.394531 68.046875 110.417969 69.34375 C 110.371094 69.378906 110.324219 69.390625 110.28125 69.390625 Z M 110.28125 69.390625 " fill-opacity="1" fill-rule="nonzero"></path><g clip-path="url(#6566c65816)"><path fill="#ffffff" d="M 209.417969 53.25 C 209.417969 54.289062 209.367188 55.328125 209.265625 56.363281 C 209.164062 57.398438 209.011719 58.425781 208.808594 59.445312 C 208.605469 60.464844 208.355469 61.46875 208.050781 62.464844 C 207.75 63.460938 207.398438 64.4375 207 65.398438 C 206.605469 66.359375 206.160156 67.296875 205.667969 68.214844 C 205.179688 69.132812 204.644531 70.023438 204.066406 70.886719 C 203.488281 71.75 202.871094 72.585938 202.210938 73.386719 C 201.550781 74.191406 200.855469 74.960938 200.117188 75.695312 C 199.382812 76.433594 198.613281 77.128906 197.808594 77.789062 C 197.003906 78.449219 196.171875 79.066406 195.304688 79.644531 C 194.441406 80.222656 193.550781 80.753906 192.632812 81.246094 C 191.714844 81.734375 190.777344 82.179688 189.816406 82.578125 C 188.855469 82.976562 187.878906 83.324219 186.882812 83.628906 C 185.886719 83.929688 184.878906 84.179688 183.859375 84.382812 C 182.839844 84.585938 181.8125 84.738281 180.777344 84.839844 C 179.742188 84.941406 178.703125 84.992188 177.664062 84.992188 C 176.625 84.992188 175.585938 84.941406 174.550781 84.839844 C 173.515625 84.738281 172.488281 84.585938 171.46875 84.382812 C 170.449219 84.179688 169.441406 83.929688 168.445312 83.628906 C 167.453125 83.324219 166.472656 82.976562 165.511719 82.578125 C 164.550781 82.179688 163.613281 81.734375 162.695312 81.246094 C 161.777344 80.753906 160.886719 80.222656 160.023438 79.644531 C 159.15625 79.066406 158.324219 78.449219 157.519531 77.789062 C 156.714844 77.128906 155.945312 76.433594 155.210938 75.695312 C 154.476562 74.960938 153.777344 74.191406 153.117188 73.386719 C 152.457031 72.585938 151.839844 71.75 151.261719 70.886719 C 150.683594 70.023438 150.148438 69.132812 149.660156 68.214844 C 149.167969 67.296875 148.726562 66.359375 148.328125 65.398438 C 147.929688 64.4375 147.578125 63.460938 147.277344 62.464844 C 146.976562 61.46875 146.722656 60.464844 146.519531 59.445312 C 146.316406 58.425781 146.164062 57.398438 146.0625 56.363281 C 145.960938 55.328125 145.910156 54.289062 145.910156 53.25 C 145.910156 52.210938 145.960938 51.175781 146.0625 50.140625 C 146.164062 49.105469 146.316406 48.078125 146.519531 47.058594 C 146.722656 46.039062 146.976562 45.03125 147.277344 44.035156 C 147.578125 43.042969 147.929688 42.0625 148.328125 41.101562 C 148.726562 40.144531 149.167969 39.203125 149.660156 38.285156 C 150.148438 37.371094 150.683594 36.480469 151.261719 35.613281 C 151.839844 34.75 152.457031 33.917969 153.117188 33.113281 C 153.777344 32.308594 154.476562 31.539062 155.210938 30.804688 C 155.945312 30.070312 156.714844 29.371094 157.519531 28.714844 C 158.324219 28.054688 159.15625 27.433594 160.023438 26.855469 C 160.886719 26.28125 161.777344 25.746094 162.695312 25.253906 C 163.613281 24.765625 164.550781 24.320312 165.511719 23.925781 C 166.472656 23.527344 167.453125 23.175781 168.445312 22.875 C 169.441406 22.574219 170.449219 22.320312 171.46875 22.117188 C 172.488281 21.914062 173.515625 21.761719 174.550781 21.660156 C 175.585938 21.558594 176.625 21.507812 177.664062 21.507812 C 178.703125 21.507812 179.742188 21.558594 180.777344 21.660156 C 181.8125 21.761719 182.839844 21.914062 183.859375 22.117188 C 184.878906 22.320312 185.886719 22.574219 186.882812 22.875 C 187.878906 23.175781 188.855469 23.527344 189.816406 23.925781 C 190.777344 24.320312 191.714844 24.765625 192.632812 25.253906 C 193.550781 25.746094 194.441406 26.28125 195.304688 26.855469 C 196.171875 27.433594 197.003906 28.054688 197.808594 28.714844 C 198.613281 29.371094 199.382812 30.070312 200.117188 30.804688 C 200.855469 31.539062 201.550781 32.308594 202.210938 33.113281 C 202.871094 33.917969 203.488281 34.75 204.066406 35.613281 C 204.644531 36.480469 205.179688 37.371094 205.667969 38.285156 C 206.160156 39.203125 206.605469 40.144531 207 41.101562 C 207.398438 42.0625 207.75 43.042969 208.050781 44.035156 C 208.355469 45.03125 208.605469 46.039062 208.808594 47.058594 C 209.011719 48.078125 209.164062 49.105469 209.265625 50.140625 C 209.367188 51.175781 209.417969 52.210938 209.417969 53.25 Z M 209.417969 53.25 " fill-opacity="1" fill-rule="nonzero"></path></g><g clip-path="url(#0fa2eccd27)"><path fill="#000000" d="M 177.664062 85.253906 C 160.015625 85.253906 145.660156 70.902344 145.660156 53.261719 C 145.660156 35.625 160.015625 21.257812 177.664062 21.257812 C 195.316406 21.257812 209.667969 35.613281 209.667969 53.25 C 209.667969 70.890625 195.316406 85.253906 177.664062 85.253906 Z M 177.664062 21.757812 C 160.285156 21.757812 146.160156 35.882812 146.160156 53.25 C 146.160156 70.617188 160.296875 84.742188 177.664062 84.742188 C 195.03125 84.742188 209.167969 70.617188 209.167969 53.25 C 209.167969 35.882812 195.042969 21.757812 177.664062 21.757812 Z M 177.664062 21.757812 " fill-opacity="1" fill-rule="nonzero"></path></g><path fill="#88e64a" d="M 177.664062 78.003906 C 171.050781 78.003906 164.832031 75.4375 160.160156 70.753906 C 155.492188 66.082031 152.910156 59.867188 152.910156 53.25 C 152.910156 46.636719 155.492188 40.429688 160.160156 35.75 C 164.832031 31.078125 171.050781 28.496094 177.664062 28.496094 C 184.277344 28.496094 190.496094 31.066406 195.167969 35.75 C 199.839844 40.417969 202.417969 46.636719 202.417969 53.25 C 202.417969 59.867188 199.839844 66.070312 195.167969 70.753906 C 190.496094 75.425781 184.277344 78.003906 177.664062 78.003906 Z M 177.664062 78.003906 " fill-opacity="1" fill-rule="nonzero"></path><path fill="#ffffff" d="M 177.664062 70.082031 C 173.164062 70.082031 168.9375 68.332031 165.753906 65.148438 C 162.570312 61.96875 160.820312 57.738281 160.820312 53.25 C 160.820312 48.75 162.570312 44.523438 165.753906 41.351562 C 168.9375 38.167969 173.164062 36.417969 177.664062 36.417969 C 182.164062 36.417969 186.394531 38.167969 189.574219 41.351562 C 192.757812 44.535156 194.507812 48.761719 194.507812 53.25 C 194.507812 57.75 192.757812 61.980469 189.574219 65.148438 C 186.394531 68.332031 182.164062 70.082031 177.664062 70.082031 Z M 177.664062 70.082031 " fill-opacity="1" fill-rule="nonzero"></path><path fill="#88e64a" d="M 177.664062 62.503906 C 175.199219 62.503906 172.867188 61.535156 171.117188 59.796875 C 169.367188 58.046875 168.414062 55.726562 168.414062 53.25 C 168.414062 50.785156 169.378906 48.453125 171.117188 46.703125 C 172.867188 44.953125 175.1875 44 177.664062 44 C 180.128906 44 182.460938 44.964844 184.210938 46.703125 C 185.960938 48.453125 186.914062 50.773438 186.914062 53.25 C 186.914062 55.71875 185.949219 58.046875 184.210938 59.796875 C 182.460938 61.546875 180.140625 62.503906 177.664062 62.503906 Z M 177.664062 62.503906 " fill-opacity="1" fill-rule="nonzero"></path><path fill="#88e64a" d="M 177.664062 55.796875 C 176.984375 55.796875 176.347656 55.535156 175.867188 55.058594 C 175.390625 54.582031 175.128906 53.945312 175.128906 53.261719 C 175.128906 52.582031 175.390625 51.945312 175.867188 51.464844 C 176.347656 50.988281 176.984375 50.726562 177.664062 50.726562 C 178.347656 50.726562 178.984375 50.988281 179.460938 51.464844 C 179.9375 51.945312 180.199219 52.582031 180.199219 53.261719 C 180.199219 53.945312 179.9375 54.582031 179.460938 55.058594 C 178.984375 55.535156 178.347656 55.796875 177.664062 55.796875 Z M 177.664062 55.796875 " fill-opacity="1" fill-rule="nonzero"></path><path fill="#88e64a" d="M 185.996094 49.160156 L 178.074219 53.070312 L 184.996094 47.578125 Z M 185.996094 49.160156 " fill-opacity="1" fill-rule="nonzero"></path><path fill="#1b4200" d="M 185.996094 49.160156 L 179.949219 52.148438 L 179.847656 51.957031 L 179.722656 51.761719 L 184.996094 47.578125 Z M 185.996094 49.160156 " fill-opacity="1" fill-rule="nonzero"></path><path fill="#ffffff" d="M 212.101562 31.453125 L 205.394531 35.703125 L 205.304688 30.996094 C 205.257812 28.882812 206.328125 26.894531 208.125 25.757812 L 211.941406 23.335938 Z M 212.101562 31.453125 " fill-opacity="1" fill-rule="nonzero"></path><path fill="#000000" d="M 205.40625 35.953125 C 205.363281 35.953125 205.328125 35.941406 205.292969 35.917969 C 205.214844 35.875 205.167969 35.792969 205.15625 35.703125 L 205.066406 30.996094 C 205.019531 28.804688 206.144531 26.710938 208 25.542969 L 211.816406 23.121094 C 211.898438 23.074219 211.988281 23.066406 212.066406 23.109375 C 212.148438 23.15625 212.191406 23.234375 212.203125 23.324219 L 212.363281 31.441406 C 212.363281 31.53125 212.316406 31.609375 212.25 31.65625 L 205.542969 35.90625 C 205.5 35.941406 205.453125 35.953125 205.40625 35.953125 Z M 211.703125 23.792969 L 208.261719 25.972656 C 206.554688 27.054688 205.519531 28.984375 205.554688 30.996094 L 205.632812 35.257812 L 211.839844 31.328125 Z M 211.703125 23.792969 " fill-opacity="1" fill-rule="nonzero"></path><path fill="#ffffff" d="M 212.101562 31.453125 L 205.394531 35.703125 L 209.613281 37.792969 C 211.511719 38.738281 213.761719 38.613281 215.554688 37.476562 L 219.375 35.054688 Z M 212.101562 31.453125 " fill-opacity="1" fill-rule="nonzero"></path><path fill="#000000" d="M 212.304688 38.65625 C 211.351562 38.65625 210.386719 38.441406 209.511719 38.011719 L 205.292969 35.917969 C 205.214844 35.875 205.15625 35.792969 205.15625 35.703125 C 205.15625 35.613281 205.191406 35.53125 205.269531 35.476562 L 211.976562 31.226562 C 212.042969 31.179688 212.148438 31.167969 212.226562 31.214844 L 219.5 34.816406 C 219.578125 34.863281 219.636719 34.941406 219.636719 35.03125 C 219.636719 35.125 219.601562 35.203125 219.523438 35.257812 L 215.703125 37.679688 C 214.667969 38.339844 213.488281 38.65625 212.304688 38.65625 Z M 205.90625 35.679688 L 209.726562 37.566406 C 211.53125 38.464844 213.714844 38.351562 215.421875 37.261719 L 218.863281 35.078125 L 212.113281 31.734375 Z M 205.90625 35.679688 " fill-opacity="1" fill-rule="nonzero"></path><path fill="#1b4200" d="M 210.339844 34.089844 L 190.3125 46.785156 L 188.917969 44.578125 L 208.941406 31.882812 C 209.429688 31.578125 210.078125 31.714844 210.386719 32.203125 L 210.65625 32.632812 C 210.976562 33.132812 210.828125 33.78125 210.339844 34.089844 Z M 210.339844 34.089844 " fill-opacity="1" fill-rule="nonzero"></path><path fill="#ffffff" d="M 201.078125 40.554688 L 187.289062 49.296875 C 186.621094 49.714844 185.746094 49.523438 185.324219 48.851562 L 184.949219 48.261719 C 184.527344 47.589844 184.722656 46.714844 185.394531 46.296875 L 199.179688 37.554688 Z M 201.078125 40.554688 " fill-opacity="1" fill-rule="nonzero"></path><path fill="#000000" d="M 186.519531 49.773438 C 185.960938 49.773438 185.414062 49.5 185.097656 49 L 184.722656 48.410156 C 184.484375 48.035156 184.402344 47.578125 184.507812 47.148438 C 184.609375 46.714844 184.871094 46.339844 185.246094 46.101562 L 199.03125 37.363281 C 199.144531 37.28125 199.304688 37.328125 199.371094 37.441406 L 201.28125 40.453125 C 201.316406 40.511719 201.328125 40.578125 201.316406 40.648438 C 201.304688 40.714844 201.257812 40.773438 201.203125 40.804688 L 187.414062 49.546875 C 187.144531 49.695312 186.824219 49.773438 186.519531 49.773438 Z M 199.089844 37.894531 L 185.507812 46.511719 C 185.246094 46.679688 185.050781 46.941406 184.984375 47.25 C 184.914062 47.558594 184.972656 47.875 185.144531 48.136719 L 185.519531 48.726562 C 185.871094 49.273438 186.597656 49.445312 187.144531 49.089844 L 200.726562 40.476562 Z M 199.089844 37.894531 " fill-opacity="1" fill-rule="nonzero"></path><path fill="#000000" d="M 185.996094 49.160156 L 178.074219 53.070312 L 184.996094 47.578125 Z M 185.996094 49.160156 " fill-opacity="1" fill-rule="nonzero"></path><path fill="#ffffff" d="M 219.375 148.164062 L 337.765625 148.164062 L 337.765625 219.785156 L 219.375 219.785156 Z M 219.375 148.164062 " fill-opacity="1" fill-rule="nonzero"></path><g clip-path="url(#1c50bacb3b)"><path fill="#000000" d="M 337.765625 220.035156 L 219.375 220.035156 C 219.238281 220.035156 219.125 219.921875 219.125 219.785156 L 219.125 148.164062 C 219.125 148.027344 219.238281 147.914062 219.375 147.914062 L 337.765625 147.914062 C 337.902344 147.914062 338.015625 148.027344 338.015625 148.164062 L 338.015625 219.785156 C 338.015625 219.921875 337.902344 220.035156 337.765625 220.035156 Z M 219.625 219.535156 L 337.515625 219.535156 L 337.515625 148.414062 L 219.625 148.414062 Z M 219.625 219.535156 " fill-opacity="1" fill-rule="nonzero"></path></g><path fill="#ffffff" d="M 228.511719 157.367188 L 257.449219 157.367188 L 257.449219 210.582031 L 228.511719 210.582031 Z M 228.511719 157.367188 " fill-opacity="1" fill-rule="nonzero"></path><path fill="#000000" d="M 257.460938 210.832031 L 228.523438 210.832031 C 228.386719 210.832031 228.273438 210.714844 228.273438 210.582031 L 228.273438 157.367188 C 228.273438 157.230469 228.386719 157.117188 228.523438 157.117188 L 257.460938 157.117188 C 257.597656 157.117188 257.710938 157.230469 257.710938 157.367188 L 257.710938 210.582031 C 257.710938 210.714844 257.597656 210.832031 257.460938 210.832031 Z M 228.761719 210.332031 L 257.199219 210.332031 L 257.199219 157.617188 L 228.761719 157.617188 Z M 228.761719 210.332031 " fill-opacity="1" fill-rule="nonzero"></path><path fill="#1b4200" d="M 234.003906 163.300781 L 251.972656 163.300781 L 251.972656 181.792969 L 234.003906 181.792969 Z M 234.003906 163.300781 " fill-opacity="1" fill-rule="nonzero"></path><path fill="#000000" d="M 251.972656 188.179688 L 234.003906 188.179688 C 233.867188 188.179688 233.753906 188.066406 233.753906 187.929688 C 233.753906 187.792969 233.867188 187.679688 234.003906 187.679688 L 251.972656 187.679688 C 252.105469 187.679688 252.222656 187.792969 252.222656 187.929688 C 252.222656 188.066406 252.105469 188.179688 251.972656 188.179688 Z M 251.972656 188.179688 " fill-opacity="1" fill-rule="nonzero"></path><path fill="#000000" d="M 251.972656 193.863281 L 234.003906 193.863281 C 233.867188 193.863281 233.753906 193.75 233.753906 193.613281 C 233.753906 193.476562 233.867188 193.363281 234.003906 193.363281 L 251.972656 193.363281 C 252.105469 193.363281 252.222656 193.476562 252.222656 193.613281 C 252.222656 193.75 252.105469 193.863281 251.972656 193.863281 Z M 251.972656 193.863281 " fill-opacity="1" fill-rule="nonzero"></path><path fill="#000000" d="M 252.039062 199.542969 L 234.070312 199.542969 C 233.933594 199.542969 233.820312 199.429688 233.820312 199.292969 C 233.820312 199.160156 233.933594 199.042969 234.070312 199.042969 L 252.039062 199.042969 C 252.175781 199.042969 252.289062 199.160156 252.289062 199.292969 C 252.289062 199.429688 252.175781 199.542969 252.039062 199.542969 Z M 252.039062 199.542969 " fill-opacity="1" fill-rule="nonzero"></path><path fill="#ffffff" d="M 264.109375 157.367188 L 293.042969 157.367188 L 293.042969 210.582031 L 264.109375 210.582031 Z M 264.109375 157.367188 " fill-opacity="1" fill-rule="nonzero"></path><path fill="#000000" d="M 293.042969 210.832031 L 264.109375 210.832031 C 263.972656 210.832031 263.859375 210.714844 263.859375 210.582031 L 263.859375 157.367188 C 263.859375 157.230469 263.972656 157.117188 264.109375 157.117188 L 293.042969 157.117188 C 293.179688 157.117188 293.292969 157.230469 293.292969 157.367188 L 293.292969 210.582031 C 293.292969 210.714844 293.179688 210.832031 293.042969 210.832031 Z M 264.359375 210.332031 L 292.792969 210.332031 L 292.792969 157.617188 L 264.359375 157.617188 Z M 264.359375 210.332031 " fill-opacity="1" fill-rule="nonzero"></path><path fill="#1b4200" d="M 269.585938 163.300781 L 287.554688 163.300781 L 287.554688 181.792969 L 269.585938 181.792969 Z M 269.585938 163.300781 " fill-opacity="1" fill-rule="nonzero"></path><path fill="#000000" d="M 287.554688 188.179688 L 269.585938 188.179688 C 269.449219 188.179688 269.335938 188.066406 269.335938 187.929688 C 269.335938 187.792969 269.449219 187.679688 269.585938 187.679688 L 287.554688 187.679688 C 287.691406 187.679688 287.804688 187.792969 287.804688 187.929688 C 287.804688 188.066406 287.691406 188.179688 287.554688 188.179688 Z M 287.554688 188.179688 " fill-opacity="1" fill-rule="nonzero"></path><path fill="#000000" d="M 287.554688 193.863281 L 269.585938 193.863281 C 269.449219 193.863281 269.335938 193.75 269.335938 193.613281 C 269.335938 193.476562 269.449219 193.363281 269.585938 193.363281 L 287.554688 193.363281 C 287.691406 193.363281 287.804688 193.476562 287.804688 193.613281 C 287.804688 193.75 287.691406 193.863281 287.554688 193.863281 Z M 287.554688 193.863281 " fill-opacity="1" fill-rule="nonzero"></path><path fill="#000000" d="M 287.554688 199.542969 L 269.585938 199.542969 C 269.449219 199.542969 269.335938 199.429688 269.335938 199.292969 C 269.335938 199.160156 269.449219 199.042969 269.585938 199.042969 L 287.554688 199.042969 C 287.691406 199.042969 287.804688 199.160156 287.804688 199.292969 C 287.804688 199.429688 287.691406 199.542969 287.554688 199.542969 Z M 287.554688 199.542969 " fill-opacity="1" fill-rule="nonzero"></path><path fill="#ffffff" d="M 299.695312 157.367188 L 328.628906 157.367188 L 328.628906 210.582031 L 299.695312 210.582031 Z M 299.695312 157.367188 " fill-opacity="1" fill-rule="nonzero"></path><path fill="#000000" d="M 328.628906 210.832031 L 299.695312 210.832031 C 299.558594 210.832031 299.445312 210.714844 299.445312 210.582031 L 299.445312 157.367188 C 299.445312 157.230469 299.558594 157.117188 299.695312 157.117188 L 328.628906 157.117188 C 328.765625 157.117188 328.878906 157.230469 328.878906 157.367188 L 328.878906 210.582031 C 328.878906 210.714844 328.765625 210.832031 328.628906 210.832031 Z M 299.945312 210.332031 L 328.378906 210.332031 L 328.378906 157.617188 L 299.945312 157.617188 Z M 299.945312 210.332031 " fill-opacity="1" fill-rule="nonzero"></path><path fill="#1b4200" d="M 305.171875 163.300781 L 323.140625 163.300781 L 323.140625 181.792969 L 305.171875 181.792969 Z M 305.171875 163.300781 " fill-opacity="1" fill-rule="nonzero"></path><path fill="#000000" d="M 323.152344 188.179688 L 305.183594 188.179688 C 305.046875 188.179688 304.933594 188.066406 304.933594 187.929688 C 304.933594 187.792969 305.046875 187.679688 305.183594 187.679688 L 323.152344 187.679688 C 323.289062 187.679688 323.402344 187.792969 323.402344 187.929688 C 323.402344 188.066406 323.289062 188.179688 323.152344 188.179688 Z M 323.152344 188.179688 " fill-opacity="1" fill-rule="nonzero"></path><path fill="#000000" d="M 323.152344 193.863281 L 305.183594 193.863281 C 305.046875 193.863281 304.933594 193.75 304.933594 193.613281 C 304.933594 193.476562 305.046875 193.363281 305.183594 193.363281 L 323.152344 193.363281 C 323.289062 193.363281 323.402344 193.476562 323.402344 193.613281 C 323.402344 193.75 323.289062 193.863281 323.152344 193.863281 Z M 323.152344 193.863281 " fill-opacity="1" fill-rule="nonzero"></path><path fill="#000000" d="M 323.152344 199.542969 L 305.183594 199.542969 C 305.046875 199.542969 304.933594 199.429688 304.933594 199.292969 C 304.933594 199.160156 305.046875 199.042969 305.183594 199.042969 L 323.152344 199.042969 C 323.289062 199.042969 323.402344 199.160156 323.402344 199.292969 C 323.402344 199.429688 323.289062 199.542969 323.152344 199.542969 Z M 323.152344 199.542969 " fill-opacity="1" fill-rule="nonzero"></path><g clip-path="url(#f350d9d6d6)"><path fill="#ffffff" d="M 284.542969 21.507812 L 337.765625 21.507812 L 337.765625 74.730469 L 284.542969 74.730469 Z M 284.542969 21.507812 " fill-opacity="1" fill-rule="nonzero"></path></g><g clip-path="url(#8aa12354c6)"><path fill="#000000" d="M 337.765625 74.980469 L 284.542969 74.980469 C 284.40625 74.980469 284.292969 74.867188 284.292969 74.730469 L 284.292969 21.507812 C 284.292969 21.371094 284.40625 21.257812 284.542969 21.257812 L 337.765625 21.257812 C 337.902344 21.257812 338.015625 21.371094 338.015625 21.507812 L 338.015625 74.730469 C 338.015625 74.878906 337.902344 74.980469 337.765625 74.980469 Z M 284.792969 74.480469 L 337.515625 74.480469 L 337.515625 21.757812 L 284.792969 21.757812 Z M 284.792969 74.480469 " fill-opacity="1" fill-rule="nonzero"></path></g><path fill="#1b4200" d="M 294.851562 39.542969 C 294.910156 39.523438 294.964844 39.5 295.011719 39.476562 C 295.328125 39.988281 295.703125 40.429688 296.148438 40.816406 C 296.113281 40.863281 296.078125 40.917969 296.058594 40.964844 C 295.691406 41.667969 295.964844 42.542969 296.683594 42.910156 C 297.386719 43.273438 298.261719 43 298.625 42.285156 C 298.648438 42.226562 298.671875 42.179688 298.695312 42.125 C 299.261719 42.261719 299.851562 42.304688 300.445312 42.273438 C 300.453125 42.328125 300.464844 42.386719 300.488281 42.441406 C 300.726562 43.203125 301.546875 43.625 302.308594 43.375 C 303.070312 43.136719 303.488281 42.316406 303.238281 41.554688 C 303.214844 41.5 303.195312 41.441406 303.171875 41.398438 C 303.683594 41.078125 304.125 40.703125 304.511719 40.261719 C 304.558594 40.292969 304.613281 40.328125 304.660156 40.351562 C 305.363281 40.714844 306.238281 40.441406 306.605469 39.726562 C 306.96875 39.019531 306.695312 38.144531 305.980469 37.78125 C 305.921875 37.761719 305.875 37.738281 305.820312 37.714844 C 305.957031 37.144531 306 36.554688 305.96875 35.964844 C 306.023438 35.953125 306.082031 35.941406 306.136719 35.917969 C 306.898438 35.679688 307.320312 34.863281 307.070312 34.101562 C 306.832031 33.339844 306.011719 32.917969 305.25 33.167969 C 305.195312 33.191406 305.136719 33.214844 305.09375 33.238281 C 304.773438 32.726562 304.398438 32.28125 303.957031 31.894531 C 303.988281 31.851562 304.023438 31.792969 304.046875 31.746094 C 304.410156 31.042969 304.136719 30.167969 303.421875 29.804688 C 302.714844 29.441406 301.839844 29.714844 301.476562 30.429688 C 301.457031 30.484375 301.433594 30.53125 301.410156 30.589844 C 300.839844 30.453125 300.25 30.40625 299.660156 30.441406 C 299.648438 30.382812 299.636719 30.328125 299.613281 30.269531 C 299.375 29.507812 298.558594 29.089844 297.796875 29.339844 C 297.035156 29.578125 296.613281 30.394531 296.863281 31.15625 C 296.886719 31.214844 296.910156 31.269531 296.933594 31.316406 C 296.421875 31.632812 295.976562 32.007812 295.589844 32.453125 C 295.546875 32.417969 295.488281 32.382812 295.441406 32.363281 C 294.738281 31.996094 293.863281 32.269531 293.5 32.988281 C 293.136719 33.691406 293.410156 34.566406 294.125 34.929688 C 294.179688 34.953125 294.226562 34.976562 294.285156 35 C 294.148438 35.566406 294.101562 36.15625 294.136719 36.75 C 294.078125 36.757812 294.023438 36.769531 293.964844 36.792969 C 293.203125 37.03125 292.785156 37.851562 293.035156 38.613281 C 293.285156 39.375 294.089844 39.792969 294.851562 39.542969 Z M 299.25 33.804688 C 300.660156 33.351562 302.171875 34.132812 302.625 35.542969 C 303.082031 36.953125 302.296875 38.464844 300.886719 38.917969 C 299.476562 39.375 297.964844 38.589844 297.511719 37.179688 C 297.058594 35.769531 297.839844 34.257812 299.25 33.804688 Z M 299.25 33.804688 " fill-opacity="1" fill-rule="nonzero"></path><path fill="#1b4200" d="M 306.035156 59.261719 C 306.148438 59.230469 306.25 59.183594 306.355469 59.136719 C 306.96875 60.136719 307.730469 61.023438 308.59375 61.785156 C 308.523438 61.878906 308.46875 61.980469 308.410156 62.082031 C 307.695312 63.480469 308.238281 65.195312 309.636719 65.910156 C 311.035156 66.628906 312.753906 66.082031 313.46875 64.683594 C 313.523438 64.582031 313.570312 64.480469 313.605469 64.367188 C 314.71875 64.628906 315.878906 64.730469 317.058594 64.648438 C 317.082031 64.765625 317.105469 64.878906 317.140625 64.992188 C 317.617188 66.492188 319.21875 67.308594 320.71875 66.832031 C 322.21875 66.355469 323.039062 64.753906 322.558594 63.253906 C 322.527344 63.136719 322.480469 63.035156 322.433594 62.933594 C 323.4375 62.320312 324.320312 61.558594 325.082031 60.695312 C 325.175781 60.761719 325.277344 60.820312 325.378906 60.875 C 326.777344 61.59375 328.492188 61.046875 329.210938 59.648438 C 329.925781 58.25 329.378906 56.535156 327.980469 55.820312 C 327.878906 55.761719 327.777344 55.71875 327.664062 55.683594 C 327.925781 54.570312 328.027344 53.410156 327.957031 52.226562 C 328.074219 52.207031 328.1875 52.183594 328.300781 52.148438 C 329.800781 51.671875 330.617188 50.070312 330.140625 48.566406 C 329.664062 47.066406 328.0625 46.25 326.5625 46.726562 C 326.449219 46.761719 326.34375 46.804688 326.242188 46.851562 C 325.628906 45.851562 324.867188 44.964844 324.003906 44.203125 C 324.070312 44.113281 324.128906 44.011719 324.1875 43.910156 C 324.902344 42.511719 324.355469 40.792969 322.957031 40.078125 C 321.558594 39.363281 319.84375 39.90625 319.128906 41.304688 C 319.070312 41.40625 319.027344 41.511719 318.992188 41.625 C 317.878906 41.363281 316.71875 41.261719 315.535156 41.339844 C 315.515625 41.226562 315.492188 41.113281 315.457031 41 C 314.980469 39.5 313.378906 38.679688 311.878906 39.15625 C 310.375 39.636719 309.558594 41.238281 310.035156 42.738281 C 310.070312 42.851562 310.117188 42.953125 310.160156 43.054688 C 309.160156 43.667969 308.273438 44.429688 307.511719 45.296875 C 307.421875 45.226562 307.320312 45.171875 307.21875 45.113281 C 305.820312 44.398438 304.101562 44.941406 303.386719 46.339844 C 302.671875 47.738281 303.214844 49.453125 304.613281 50.171875 C 304.71875 50.226562 304.820312 50.273438 304.933594 50.308594 C 304.671875 51.421875 304.570312 52.582031 304.636719 53.761719 C 304.523438 53.785156 304.410156 53.808594 304.296875 53.839844 C 302.796875 54.320312 301.976562 55.921875 302.457031 57.421875 C 302.945312 58.921875 304.535156 59.742188 306.035156 59.261719 Z M 314.695312 47.976562 C 317.480469 47.089844 320.445312 48.625 321.332031 51.398438 C 322.21875 54.183594 320.683594 57.148438 317.902344 58.035156 C 315.117188 58.921875 312.148438 57.386719 311.261719 54.613281 C 310.375 51.832031 311.910156 48.863281 314.695312 47.976562 Z M 314.695312 47.976562 " fill-opacity="1" fill-rule="nonzero"></path><path fill="#000000" d="M 330.277344 89.121094 L 267.667969 89.121094 C 267.53125 89.121094 267.417969 89.007812 267.417969 88.871094 C 267.417969 88.734375 267.53125 88.621094 267.667969 88.621094 L 330.027344 88.621094 L 330.027344 79.199219 C 330.027344 79.0625 330.140625 78.949219 330.277344 78.949219 C 330.414062 78.949219 330.527344 79.0625 330.527344 79.199219 L 330.527344 88.871094 C 330.527344 89.007812 330.414062 89.121094 330.277344 89.121094 Z M 330.277344 89.121094 " fill-opacity="1" fill-rule="nonzero"></path><path fill="#88e64a" d="M 308.820312 79.574219 C 309.113281 79.867188 309.335938 80.203125 309.492188 80.582031 C 309.652344 80.960938 309.730469 81.359375 309.730469 81.769531 C 309.730469 82.179688 309.652344 82.574219 309.492188 82.957031 C 309.335938 83.335938 309.113281 83.671875 308.820312 83.960938 C 308.53125 84.253906 308.195312 84.476562 307.816406 84.636719 C 307.433594 84.792969 307.039062 84.871094 306.628906 84.871094 C 306.214844 84.871094 305.820312 84.792969 305.441406 84.636719 C 305.058594 84.476562 304.722656 84.253906 304.433594 83.964844 C 304.140625 83.671875 303.917969 83.335938 303.761719 82.957031 C 303.601562 82.578125 303.523438 82.179688 303.523438 81.769531 C 303.523438 81.359375 303.601562 80.960938 303.761719 80.582031 C 303.917969 80.203125 304.140625 79.867188 304.433594 79.574219 C 304.722656 79.285156 305.058594 79.058594 305.441406 78.902344 C 305.820312 78.746094 306.214844 78.667969 306.628906 78.667969 C 307.039062 78.667969 307.433594 78.746094 307.816406 78.902344 C 308.195312 79.058594 308.53125 79.285156 308.820312 79.574219 Z M 308.820312 79.574219 " fill-opacity="1" fill-rule="nonzero"></path><path fill="#88e64a" d="M 317.695312 80.148438 C 317.910156 80.496094 318.050781 80.875 318.117188 81.28125 C 318.183594 81.6875 318.167969 82.089844 318.074219 82.492188 C 317.980469 82.890625 317.8125 83.257812 317.570312 83.59375 C 317.332031 83.925781 317.035156 84.203125 316.6875 84.417969 C 316.335938 84.632812 315.957031 84.773438 315.550781 84.839844 C 315.144531 84.90625 314.742188 84.894531 314.34375 84.796875 C 313.941406 84.703125 313.574219 84.535156 313.242188 84.296875 C 312.90625 84.054688 312.632812 83.757812 312.414062 83.410156 C 312.199219 83.058594 312.058594 82.679688 311.992188 82.273438 C 311.925781 81.867188 311.941406 81.464844 312.035156 81.066406 C 312.128906 80.664062 312.296875 80.296875 312.539062 79.964844 C 312.777344 79.628906 313.074219 79.355469 313.425781 79.140625 C 313.773438 78.921875 314.152344 78.78125 314.558594 78.714844 C 314.964844 78.648438 315.367188 78.664062 315.769531 78.757812 C 316.167969 78.851562 316.535156 79.019531 316.871094 79.261719 C 317.203125 79.503906 317.476562 79.796875 317.695312 80.148438 Z M 317.695312 80.148438 " fill-opacity="1" fill-rule="nonzero"></path><path fill="#88e64a" d="M 324.375 78.789062 C 324.769531 78.910156 325.125 79.097656 325.445312 79.359375 C 325.761719 79.621094 326.019531 79.933594 326.214844 80.296875 C 326.40625 80.660156 326.523438 81.042969 326.566406 81.453125 C 326.605469 81.863281 326.566406 82.265625 326.445312 82.660156 C 326.328125 83.050781 326.136719 83.410156 325.875 83.726562 C 325.617188 84.046875 325.304688 84.300781 324.941406 84.496094 C 324.578125 84.691406 324.191406 84.808594 323.78125 84.847656 C 323.375 84.886719 322.972656 84.847656 322.578125 84.730469 C 322.183594 84.609375 321.828125 84.421875 321.511719 84.160156 C 321.191406 83.898438 320.9375 83.585938 320.742188 83.222656 C 320.546875 82.859375 320.429688 82.476562 320.390625 82.066406 C 320.347656 81.65625 320.386719 81.253906 320.507812 80.859375 C 320.628906 80.464844 320.816406 80.109375 321.078125 79.792969 C 321.339844 79.472656 321.652344 79.21875 322.011719 79.023438 C 322.375 78.828125 322.761719 78.710938 323.171875 78.671875 C 323.582031 78.632812 323.984375 78.671875 324.375 78.789062 Z M 324.375 78.789062 " fill-opacity="1" fill-rule="nonzero"></path><path fill="#000000" d="M 129.226562 102.574219 C 129.089844 102.574219 128.976562 102.460938 128.976562 102.324219 L 128.976562 47.578125 C 128.976562 47.441406 129.089844 47.328125 129.226562 47.328125 L 139.683594 47.328125 C 139.816406 47.328125 139.933594 47.441406 139.933594 47.578125 C 139.933594 47.714844 139.816406 47.828125 139.683594 47.828125 L 129.476562 47.828125 L 129.476562 102.335938 C 129.476562 102.472656 129.363281 102.574219 129.226562 102.574219 Z M 129.226562 102.574219 " fill-opacity="1" fill-rule="nonzero"></path></svg>